<?xml version="1.0" encoding="UTF-8"?>
<svg width="24px" height="24px" viewBox="0 0 24 24" version="1.1" xmlns="http://www.w3.org/2000/svg" xmlns:xlink="http://www.w3.org/1999/xlink">
    <!-- Generator: Sketch 51.3 (57544) - http://www.bohemiancoding.com/sketch -->
    <title>facebook</title>
    <desc>Created with Sketch.</desc>
    <defs></defs>
    <g id="Page-1" stroke="none" stroke-width="1" fill="none" fill-rule="evenodd">
        <g id="Blog-Article" transform="translate(-99.000000, -662.000000)" fill="#02266D">
            <g id="ICON/Social/KeyFacebook" transform="translate(97.000000, 660.000000)">
                <path d="M24.6769826,1.99806576 L3.32301741,1.99806576 C2.59574468,1.99806576 2,2.58994197 2,3.32495164 L2,24.6750484 C2,25.410058 2.59187621,26.0019342 3.32301741,26.0019342 L14.8201161,26.0019342 L14.8201161,16.72147 L11.7021277,16.72147 L11.7021277,13.0851064 L14.8201161,13.0851064 L14.8201161,10.4119923 C14.8201161,7.31334623 16.7156673,5.62282398 19.4816248,5.62282398 C20.8046422,5.62282398 21.9419729,5.72340426 22.2746615,5.76982592 L22.2746615,9.00773694 L20.3675048,9.00773694 C18.8626692,9.00773694 18.5725338,9.72340426 18.5725338,10.7717602 L18.5725338,13.0851064 L22.1702128,13.0851064 L21.6982592,16.72147 L18.5725338,16.72147 L18.5725338,26.0019342 L24.6769826,26.0019342 C25.4081238,26.0019342 26,25.410058 26,24.6750484 L26,3.32495164 C26,2.58994197 25.4081238,1.99806576 24.6769826,1.99806576" id="Fill-1"></path>
            </g>
        </g>
    </g>
</svg>