<?xml version="1.0" encoding="UTF-8"?>
<svg width="92px" height="92px" viewBox="0 0 92 92" version="1.1" xmlns="http://www.w3.org/2000/svg" xmlns:xlink="http://www.w3.org/1999/xlink">
    <!-- Generator: Sketch 51.3 (57544) - http://www.bohemiancoding.com/sketch -->
    <title>Group</title>
    <desc>Created with Sketch.</desc>
    <defs></defs>
    <g id="Page-1" stroke="none" stroke-width="1" fill="none" fill-rule="evenodd">
        <g id="Home-RU" transform="translate(-110.000000, -15.000000)">
            <g id="Group" transform="translate(111.000000, 16.000000)">
                <circle id="Oval" stroke="#02266D" stroke-width="2" fill-rule="nonzero" cx="45" cy="45" r="45"></circle>
                <path d="M60.7477051,36.0806479 L60.7477051,49.3019289 C60.7477051,51.7643524 59.9298706,53.2609467 59.209248,54.0819644 C58.2954558,55.1919753 56.6114944,56.3026158 54.1109527,56.3026158 C51.6104111,56.3026158 49.9270768,55.1919753 49.0126575,54.0819644 C48.2914077,53.2609467 47.4735732,51.7643524 47.4735732,49.3019289 L47.4735732,29 L35.8972005,29 C33.2806317,29 30.3373054,29.2424017 27.9076344,31.4630531 C26.2719653,32.960277 24.8238212,35.4220709 24.8238212,38.9479137 C24.8238212,42.6651594 26.4588631,45.3215042 28.328468,46.7211379 C29.3087405,47.4458245 30.5706141,47.977849 31.7390387,48.1698815 L23,61.207315 L30.176749,61.207315 L40.8838588,43.8242802 L37.064998,43.8242802 C35.8507897,43.8242802 31.0848965,43.8242802 31.0848965,38.9479137 C31.0848965,34.1672486 35.8507897,34.1187682 36.9721763,34.1187682 L41.2212783,34.1187682 L41.2212783,48.7711636 C41.2212783,51.8128327 41.7029477,54.9029821 43.6264895,57.3647759 C45.935116,60.406445 49.974742,62 54.1109527,62 C58.2471635,62 62.2867894,60.406445 64.5960431,57.3647759 C66.5189578,54.9029821 67,51.8128327 67,48.7711636 L67,33.2473814 L60.7477051,36.0806479 Z" id="Fill-1" fill="#02266D"></path>
            </g>
        </g>
    </g>
</svg>