<?xml version="1.0" encoding="UTF-8"?>
<svg width="26px" height="22px" viewBox="0 0 26 22" version="1.1" xmlns="http://www.w3.org/2000/svg" xmlns:xlink="http://www.w3.org/1999/xlink">
    <!-- Generator: Sketch 51.3 (57544) - http://www.bohemiancoding.com/sketch -->
    <title>reddit</title>
    <desc>Created with Sketch.</desc>
    <defs></defs>
    <g id="Page-1" stroke="none" stroke-width="1" fill="none" fill-rule="evenodd">
        <g id="Blog-Article" transform="translate(-98.000000, -722.000000)" fill="#02266D" fill-rule="nonzero">
            <g id="ICON/Social/Reddit" transform="translate(97.000000, 720.000000)">
                <path d="M27,12.7605833 C27,11.18 25.7086667,9.89516667 24.1215833,9.89516667 C23.347,9.89516667 22.645,10.205 22.12825,10.7033333 C20.1674167,9.41308333 17.5143333,8.59191667 14.5763333,8.48683333 L16.1829167,3.42875 L20.5335833,4.44816667 L20.5270833,4.511 C20.5270833,5.80341667 21.5833333,6.85425 22.88225,6.85425 C24.1800833,6.85425 25.23525,5.80341667 25.23525,4.511 C25.23525,3.21858333 24.179,2.16666667 22.88225,2.16666667 C21.8855833,2.16666667 21.03625,2.7885 20.6928333,3.66058333 L16.0030833,2.561 C15.7983333,2.51116667 15.5903333,2.62925 15.5264167,2.83075 L13.7345833,8.47166667 C10.6600833,8.5085 7.87483333,9.33616667 5.82625,10.6654167 C5.31275,10.1909167 4.63133333,9.89408333 3.87733333,9.89408333 C2.29025,9.89408333 1,11.18 1,12.7605833 C1,13.8114167 1.57741667,14.7225 2.42675,15.2208333 C2.37041667,15.5263333 2.33358333,15.8350833 2.33358333,16.14925 C2.33358333,20.3861667 7.54225,23.8333333 13.9458333,23.8333333 C20.3494167,23.8333333 25.5591667,20.3861667 25.5591667,16.14925 C25.5591667,15.8524167 25.52775,15.5599167 25.4779167,15.27175 C26.37925,14.7875 27,13.8504167 27,12.7605833 Z M8.34066667,14.7279167 C8.34066667,13.7875833 9.10983333,13.0216667 10.0545,13.0216667 C10.9991667,13.0216667 11.76725,13.7875833 11.76725,14.7279167 C11.76725,15.66825 10.9991667,16.4330833 10.0545,16.4330833 C9.10983333,16.4330833 8.34066667,15.66825 8.34066667,14.7279167 Z M18.15675,19.786 C17.2933333,20.6450833 15.9380833,21.06325 14.0140833,21.06325 L14,21.06 L13.9859167,21.06325 C12.0608333,21.06325 10.7055833,20.6450833 9.84325,19.786 C9.68616667,19.63 9.68616667,19.3754167 9.84325,19.2194167 C10.0003333,19.0623333 10.256,19.0623333 10.4130833,19.2194167 C11.11725,19.9203333 12.2861667,20.2605 13.9859167,20.2605 L14,20.26375 L14.0140833,20.2605 C15.7138333,20.2605 16.88275,19.91925 17.5869167,19.2183333 C17.744,19.06125 17.9996667,19.0623333 18.15675,19.2183333 C18.3138333,19.3754167 18.3138333,19.6289167 18.15675,19.786 Z M17.952,16.4330833 C17.0073333,16.4330833 16.23925,15.66825 16.23925,14.7279167 C16.23925,13.7875833 17.0073333,13.0216667 17.952,13.0216667 C18.8966667,13.0216667 19.66475,13.7875833 19.66475,14.7279167 C19.66475,15.66825 18.8966667,16.4330833 17.952,16.4330833 Z" id="Shape"></path>
            </g>
        </g>
    </g>
</svg>