<?xml version="1.0" encoding="UTF-8"?>
<svg width="110px" height="131px" viewBox="0 0 110 131" version="1.1" xmlns="http://www.w3.org/2000/svg" xmlns:xlink="http://www.w3.org/1999/xlink">
    <!-- Generator: Sketch 51.3 (57544) - http://www.bohemiancoding.com/sketch -->
    <title>Group 14</title>
    <desc>Created with Sketch.</desc>
    <defs>
        <polygon id="path-1" points="0 0.0438387339 110.013124 0.0438387339 110.013124 129.695593 0 129.695593"></polygon>
    </defs>
    <g id="Page-1" stroke="none" stroke-width="1" fill="none" fill-rule="evenodd">
        <g id="Home-RU" transform="translate(-198.000000, -918.000000)">
            <g id="Group-14" transform="translate(197.949219, 918.652046)">
                <g id="Group-3">
                    <mask id="mask-2" fill="white">
                        <use xlink:href="#path-1"></use>
                    </mask>
                    <g id="Clip-2"></g>
                    <path d="M1.53591233,80.7112731 C10.9281116,65.9731913 27.4789894,60.3016879 45.1482579,66.2716057 C57.0429786,70.2896001 66.2884502,78.5832363 71.7483487,88.8597788 L71.6798758,88.8972844 C60.6948665,64.1011712 94.6639455,38.7392122 79.542847,17.2778386 C62.8941508,22.6248369 64.3940333,18.1828658 62.9267569,14.2464053 C50.1842766,9.94141133 46.1313331,8.57000983 46.1313331,8.57000983 C46.1313331,8.57000983 53.7171521,-3.06651944 65.3004841,0.84711148 C73.9883907,3.78396535 83.2566866,6.91487008 83.2566866,6.91487008 C83.2566866,6.91487008 125.380562,36.2556872 103.920829,116.356297 C43.7543453,155.217022 -9.842001,98.5704755 1.53591233,80.7112731" id="Fill-1" fill="#FEFEFE" mask="url(#mask-2)"></path>
                </g>
                <path d="M11.2043986,54.7475497 C11.2368798,54.2314531 11.3822716,53.7370693 11.6467609,53.2593877 C11.9097035,52.7833763 12.2855568,52.3407692 12.7743207,51.9315664 C13.2599911,51.5223636 13.8693993,51.1716184 14.597905,50.8793307 C14.9954123,50.71899 15.3573451,50.6020749 15.6837033,50.525245 C16.006968,50.4484151 16.2992983,50.4033193 16.5545073,50.3916278 C16.8097163,50.378266 17.0308975,50.3866171 17.2180507,50.416681 C17.4036573,50.4467449 17.5475024,50.4901705 17.6511327,50.5469578 C17.8135384,50.6271281 17.9388228,50.7223304 18.0331728,50.8359051 C18.1275228,50.9478095 18.2017654,51.091448 18.2636343,51.2668207 C18.3069425,51.393757 18.3255031,51.5190232 18.3193163,51.6442894 C18.3115827,51.7695555 18.2852884,51.8831302 18.2419802,51.9866835 C18.198672,52.0902369 18.1337097,52.183769 18.0501868,52.2672797 C17.9651171,52.3507905 17.8661269,52.4159289 17.7470294,52.4643652 C17.6140114,52.5178121 17.4624327,52.5478759 17.2953868,52.5578972 L16.7246467,52.5829505 C16.5158393,52.5896313 16.2760975,52.618025 16.0116082,52.6664612 C15.7471189,52.7132273 15.4516951,52.8017487 15.1284304,52.9320255 C14.7989787,53.0656427 14.5252091,53.2126217 14.314855,53.3746326 C14.1014075,53.5383137 13.9390017,53.7103459 13.8245444,53.8907292 C13.7116337,54.0727827 13.6482182,54.2565064 13.6327509,54.4435705 C13.6172837,54.6306346 13.6420313,54.819369 13.7085403,55.0097735 C13.8075304,55.2970506 13.9699362,55.5024871 14.1988509,55.6277533 C14.4262189,55.7546896 14.6968951,55.83486 15.0108796,55.8716047 C15.324864,55.9083495 15.674423,55.9150303 16.0549164,55.8933175 L17.2273311,55.8432111 C17.6248384,55.8315195 18.0238925,55.8448813 18.4198531,55.8799558 C18.8189072,55.9133601 19.1963072,56.0068922 19.5520531,56.1572116 C19.9108924,56.307531 20.2341571,56.5346803 20.5249407,56.8386595 C20.8141776,57.1443089 21.0492792,57.5585223 21.2286989,58.08297 C21.4127587,58.6140985 21.4854546,59.1535781 21.4529735,59.6963981 C21.4189456,60.2408884 21.2627268,60.7653361 20.9874104,61.2680709 C20.712094,61.772476 20.3192268,62.2434767 19.8057154,62.6810732 C19.2891105,63.1203399 18.6456744,63.4927979 17.8723138,63.803458 C17.4082975,63.9905221 16.9906827,64.1258096 16.6225631,64.2109906 C16.2544434,64.2961716 15.929632,64.3496185 15.6527689,64.369661 C15.374359,64.3913738 15.136164,64.3830228 14.9397304,64.3446078 C14.7417501,64.3061929 14.5839845,64.2560864 14.4602468,64.1976288 C14.3210419,64.1274798 14.2003976,64.0372882 14.1045009,63.9270539 C14.0070575,63.8151495 13.9281747,63.6648301 13.8616657,63.4744255 C13.7673157,63.2038506 13.7673157,62.9549885 13.8616657,62.7278392 C13.954469,62.5006899 14.1215149,62.338679 14.3658968,62.2401363 C14.4911812,62.1900298 14.6396665,62.1666468 14.8128992,62.168317 C14.9845853,62.1716575 15.1918459,62.168317 15.430041,62.1582958 C15.6713295,62.1482745 15.9450992,62.1165404 16.2544434,62.0647637 C16.5622409,62.012987 16.922627,61.904423 17.3356016,61.7390717 C17.7037212,61.5920927 18.0084253,61.4234009 18.2497138,61.2363368 C18.4910023,61.0476025 18.6750621,60.8538575 18.80344,60.6534316 C18.9302711,60.4530058 19.002967,60.2442288 19.019981,60.0237604 C19.0369949,59.8032919 19.0076072,59.5861639 18.9333646,59.3740466 C18.8297343,59.0700673 18.6611417,58.8512691 18.4306802,58.7126412 C18.1971253,58.5756836 17.9218089,58.4871621 17.6031843,58.447077 C17.2845598,58.408662 16.9350008,58.4003109 16.5560541,58.4203535 C16.1771074,58.4403961 15.7888803,58.4554281 15.3882795,58.4621089 C14.9892255,58.4687898 14.5901714,58.4570983 14.1942107,58.4270344 C13.7982501,58.3953003 13.4239436,58.3067789 13.0651043,58.1597999 C12.7109051,58.0144912 12.3907338,57.7923525 12.1076838,57.4933839 C11.8230871,57.1960856 11.5957191,56.7918934 11.4193929,56.2824777 C11.2430666,55.7747322 11.1719175,55.2636463 11.2043986,54.7475497" id="Fill-4" fill="#FEFEFE"></path>
                <path d="M30.6615188,48.5776291 L30.8464616,48.3497025 C30.9530952,48.2291326 31.0730581,48.1300341 31.2113486,48.0573618 C31.3463068,47.9846895 31.5045911,47.9367919 31.6795369,47.9202755 C31.8678119,47.8988042 32.04609,47.9169722 32.222702,47.9681731 C32.3976478,48.0226773 32.5592644,48.1019561 32.7025534,48.2093129 C32.8458423,48.315018 32.964139,48.4421944 33.0557773,48.5891906 C33.1474156,48.7345351 33.2023986,48.8881378 33.2190601,49.0466955 C33.2373877,49.2036015 33.2157278,49.3654624 33.1557463,49.5273233 C33.0974311,49.6891843 32.9891313,49.8642583 32.830847,50.0492423 L29.3652537,53.9999703 L33.9988186,58.3536991 C34.158769,58.497392 34.280398,58.6410848 34.3653717,58.783126 C34.4453469,58.9268189 34.4969976,59.0804216 34.5153253,59.2472375 C34.5369852,59.4487378 34.5153253,59.6386767 34.4453469,59.8187057 C34.3753686,59.9987347 34.2737334,60.1605956 34.1371091,60.3009852 C34.0054832,60.4413748 33.8521973,60.5553381 33.6789176,60.6461784 C33.505638,60.7370187 33.3223614,60.7931746 33.1257556,60.8129943 C32.9608067,60.8311623 32.8008563,60.8162976 32.6509027,60.7683999 C32.5009491,60.722154 32.3593263,60.6412235 32.2277004,60.5289118 C32.1460591,60.4611945 32.06775,60.3951288 31.9977717,60.3323664 C31.9261272,60.2679524 31.8428196,60.1853702 31.7461829,60.0862717 L26.3661825,54.7233896 L26.9559998,60.1787637 C26.9993197,60.5702029 26.9160122,60.8873182 26.7094095,61.1284579 C26.4994746,61.3712493 26.161246,61.5165938 25.6913915,61.5661431 C25.2182047,61.617344 24.8549839,61.5463234 24.6000628,61.3530813 C24.3451418,61.1614908 24.1968544,60.8691501 24.1552006,60.4760593 L22.4040763,44.3114374 C22.3624225,43.9199982 22.4440639,43.6061862 22.6523327,43.3683497 C22.8622677,43.1305132 23.2004963,42.9868203 23.6736831,42.9372711 C24.1452037,42.8860702 24.5067584,42.9554391 24.7616794,43.1437263 C25.0149343,43.3320136 25.1632217,43.6210509 25.2065417,44.0141418 L26.2878734,54.0115318 L30.4082639,48.8897895 L30.6615188,48.5776291 Z" id="Fill-6" fill="#FEFEFE"></path>
                <path d="M38.3739824,43.864537 C38.4840441,43.6547518 38.6313848,43.4785323 38.8089037,43.3392349 C38.9864226,43.196581 39.1976701,43.0874927 39.4444214,43.0119701 C39.6893974,42.9347691 39.957451,42.9062383 40.2432564,42.928056 C40.5130851,42.9481954 40.7598364,43.0119701 40.9835102,43.1227366 C41.2036336,43.2318249 41.3900285,43.3677657 41.5462451,43.5272025 C41.7006865,43.6883175 41.8160738,43.876285 41.8941821,44.091105 C41.9705153,44.305925 42.0006935,44.5308147 41.9829416,44.770809 C41.9616393,45.0242295 41.8941821,45.2558323 41.7841204,45.4605827 C41.6705083,45.665333 41.5249428,45.8415525 41.3438736,45.987563 C41.1574787,46.1318952 40.9462312,46.2409835 40.7048055,46.3114713 C40.465155,46.3853157 40.2006519,46.4121682 39.9112961,46.3920288 C39.6450177,46.3718895 39.3964913,46.3097931 39.1745926,46.2040613 C38.952694,46.0983296 38.7662992,45.9623888 38.6118577,45.7979172 C38.4574163,45.6334456 38.342029,45.4454781 38.2639207,45.2340147 C38.1858124,45.0242295 38.1556342,44.7943049 38.1751612,44.5492758 C38.1946883,44.3025685 38.2621455,44.0743222 38.3739824,43.864537 M38.6189585,48.7533708 C38.8816864,48.5536553 39.2686776,48.4730978 39.7692809,48.5083417 C40.2716594,48.5452639 40.6391235,48.6795264 40.8698981,48.9144858 C41.0988975,49.1477669 41.1983081,49.4649621 41.1663547,49.8660714 L40.3231399,60.4191049 C40.2876361,60.8185359 40.1420706,61.1206266 39.8775675,61.3236986 C39.6095139,61.5267707 39.2260731,61.6106847 38.7236946,61.5737625 C38.219541,61.5385186 37.8556272,61.4008996 37.6248527,61.1625836 C37.3958533,60.9242676 37.2964427,60.6053942 37.3283961,60.2059632 L38.173386,49.6512514 C38.2071146,49.2518204 38.3526801,48.9530863 38.6189585,48.7533708" id="Fill-8" fill="#FEFEFE"></path>
                <path d="M46.2958304,44.0109449 C46.5577917,43.8477349 46.9173783,43.8118287 47.3713361,43.9032263 C47.8252939,43.9929918 48.1442033,44.1659945 48.3264373,44.417338 C48.5070441,44.6686815 48.5623651,44.985309 48.485892,45.3672206 L45.8760415,58.5219517 C45.8109579,58.8549003 45.7784162,59.1388858 45.7784162,59.3706441 C45.7784162,59.6024023 45.8077038,59.7900939 45.8679061,59.9337188 C45.9281083,60.0773436 46.012717,60.1866944 46.1217319,60.2634031 C46.2258656,60.3384797 46.3527785,60.3923391 46.4975894,60.4217169 C46.6277565,60.4478305 46.7432798,60.4641515 46.8425323,60.4706799 C46.9417847,60.4788404 47.0410371,60.4918972 47.1386624,60.5114824 C47.2346607,60.5310676 47.3274047,60.5669738 47.4071321,60.6224652 C47.4884865,60.6763246 47.551943,60.7448728 47.6007556,60.8248457 C47.6479412,60.9080829 47.6821101,61.0027447 47.7016352,61.1120954 C47.7227873,61.2214462 47.7211602,61.3373253 47.6951268,61.4581008 C47.6593308,61.6555849 47.5942473,61.8106345 47.5080116,61.9297779 C47.4201488,62.0472891 47.3208964,62.1452151 47.2053731,62.223556 C47.1240186,62.2839437 47.0263933,62.3361709 46.9141242,62.3818697 C46.8002279,62.4259365 46.6668067,62.4602106 46.5122332,62.4846921 C46.3592869,62.5091736 46.1868155,62.5189662 45.9883106,62.5140699 C45.7914329,62.5075415 45.5668946,62.4814279 45.3163229,62.4308328 C44.3661031,62.2415091 43.6973696,61.8383802 43.3052412,61.2230783 C42.9131128,60.6077763 42.8203687,59.7721408 43.0302631,58.7145396 L45.7865516,44.8286274 C45.8597706,44.4467158 46.032242,44.174155 46.2958304,44.0109449" id="Fill-10" fill="#FEFEFE"></path>
                <path d="M55.6868413,45.8175505 C55.9735479,45.682351 56.3457636,45.6889461 56.8018116,45.8307407 C57.2545063,45.9741841 57.5613327,46.1819297 57.7189375,46.4556263 C57.8748657,46.729323 57.8916321,47.0541316 57.7692369,47.4284034 L53.5776193,60.3284171 C53.4719905,60.6565232 53.403248,60.9351662 53.3780983,61.1692922 C53.3495953,61.4034182 53.3596552,61.5946761 53.4049246,61.7447146 C53.4501941,61.8947531 53.5222899,62.0151136 53.6228887,62.1024987 C53.7234876,62.1931813 53.8475595,62.2607811 53.9917511,62.3069468 C54.1208529,62.3465173 54.2398949,62.3761953 54.338817,62.3959806 C54.4410925,62.4141171 54.538338,62.4388487 54.6372602,62.4685267 C54.7361824,62.4998534 54.8216914,62.5476679 54.9004938,62.6119701 C54.9776196,62.6746235 55.0346256,62.7504672 55.0765417,62.8362034 C55.113428,62.9235885 55.136901,63.0241638 55.1452843,63.1362804 C55.1519909,63.2500459 55.136901,63.3654601 55.0983382,63.4841719 C55.0363022,63.6770786 54.9541465,63.8254683 54.851871,63.9342874 C54.7495956,64.0431066 54.6355836,64.1304916 54.5048051,64.1947938 C54.4176194,64.2459059 54.3119907,64.288774 54.1895954,64.3201007 C54.0688769,64.3514274 53.9280385,64.3712127 53.768757,64.3794566 C53.6094756,64.3860517 53.4300743,64.3761591 53.2288767,64.3481299 C53.027679,64.3201007 52.799655,64.2656911 52.5498346,64.18655 C51.5991758,63.8881217 50.9620499,63.4083283 50.6300738,62.7455208 C50.2997743,62.0843622 50.3048042,61.2335944 50.6401336,60.1981639 L55.0698352,46.5792845 C55.1905537,46.2050126 55.3967813,45.9511013 55.6868413,45.8175505" id="Fill-12" fill="#FEFEFE"></path>
            </g>
        </g>
    </g>
</svg>