<?xml version="1.0" encoding="UTF-8"?>
<svg width="24px" height="20px" viewBox="0 0 24 20" version="1.1" xmlns="http://www.w3.org/2000/svg" xmlns:xlink="http://www.w3.org/1999/xlink">
    <!-- Generator: Sketch 51.3 (57544) - http://www.bohemiancoding.com/sketch -->
    <title>twitter</title>
    <desc>Created with Sketch.</desc>
    <defs></defs>
    <g id="Page-1" stroke="none" stroke-width="1" fill="none" fill-rule="evenodd">
        <g id="Blog-Article" transform="translate(-99.000000, -784.000000)" fill="#02266D">
            <g id="ICON/Social/Twitter" transform="translate(97.000000, 780.000000)">
                <path d="M9.5478339,23.7525186 C18.6048013,23.7525186 23.5576698,16.24912 23.5576698,9.74273819 C23.5576698,9.52950434 23.5533374,9.31727028 23.5435616,9.10614711 C24.5049191,8.41112363 25.3406914,7.54396895 26,6.55661681 C25.1176818,6.94853607 24.1682663,7.21270386 23.1722492,7.33179044 C24.1888176,6.7223049 24.9693234,5.75772584 25.3374143,4.60796271 C24.3858325,5.17201317 23.332494,5.58226199 22.2108917,5.80316092 C21.3123546,4.84613587 20.0327294,4.24748142 18.6166878,4.24748142 C15.897248,4.24748142 13.6919801,6.45269377 13.6919801,9.17107818 C13.6919801,9.55755412 13.7353045,9.93325449 13.8197316,10.2937913 C9.7275191,10.0881115 6.0986556,8.12857073 3.67043364,5.14929563 C3.24713196,5.87681242 3.00357102,6.7223049 3.00357102,7.62411911 C3.00357102,9.33243383 3.87289193,10.840512 5.19473072,11.7227747 C4.38711932,11.6978909 3.62822011,11.4759367 2.96457906,11.1067905 C2.96352372,11.1273418 2.96352372,11.1479487 2.96352372,11.1695553 C2.96352372,13.5545084 4.66100734,15.5453761 6.91387654,15.9968942 C6.50035062,16.1094265 6.06510696,16.1700807 5.61586618,16.1700807 C5.29865375,16.1700807 4.9901062,16.1386983 4.69022354,16.0813212 C5.31703885,18.0375293 7.13471993,19.4611249 9.29016476,19.5012278 C7.60456758,20.8219557 5.48161606,21.6090157 3.17459135,21.6090157 C2.77728431,21.6090157 2.38536505,21.5862982 2,21.5408631 C4.17921771,22.9373532 6.7666291,23.7525186 9.5478339,23.7525186" id="Fill-1"></path>
            </g>
        </g>
    </g>
</svg>